<mxfile host="www.draw.io" modified="2023-04-21T17:12:25.582Z" agent="Mozilla/5.0 (Windows NT 10.0; Win64; x64) AppleWebKit/537.36 (KHTML, like Gecko) Chrome/112.0.0.0 Safari/537.36 Edg/112.0.1722.48" etag="Hx4LMvTW-1sWgT184ZjE" version="21.2.1" type="device">
  <diagram name="Page-1" id="wy4apaUtkzLcrrEGbu5x">
    <mxGraphModel dx="1419" dy="819" grid="1" gridSize="10" guides="1" tooltips="1" connect="1" arrows="1" fold="1" page="1" pageScale="1" pageWidth="850" pageHeight="1100" math="0" shadow="0">
      <root>
        <mxCell id="0" />
        <mxCell id="1" parent="0" />
        <mxCell id="95huX523AQFn9EcMjhDn-1" value="&lt;b&gt;Book Status&lt;/b&gt;" style="shape=umlFrame;whiteSpace=wrap;html=1;pointerEvents=0;width=130;height=40;" vertex="1" parent="1">
          <mxGeometry x="80" y="40" width="700" height="420" as="geometry" />
        </mxCell>
        <mxCell id="95huX523AQFn9EcMjhDn-11" style="edgeStyle=orthogonalEdgeStyle;rounded=0;orthogonalLoop=1;jettySize=auto;html=1;entryX=0;entryY=0.5;entryDx=0;entryDy=0;" edge="1" parent="1" source="95huX523AQFn9EcMjhDn-2" target="95huX523AQFn9EcMjhDn-4">
          <mxGeometry relative="1" as="geometry" />
        </mxCell>
        <mxCell id="95huX523AQFn9EcMjhDn-2" value="" style="ellipse;html=1;shape=startState;fillColor=#000000;strokeColor=#ff0000;" vertex="1" parent="1">
          <mxGeometry x="110" y="107.5" width="30" height="30" as="geometry" />
        </mxCell>
        <mxCell id="95huX523AQFn9EcMjhDn-12" style="edgeStyle=orthogonalEdgeStyle;rounded=0;orthogonalLoop=1;jettySize=auto;html=1;entryX=0;entryY=0.5;entryDx=0;entryDy=0;" edge="1" parent="1" source="95huX523AQFn9EcMjhDn-4" target="95huX523AQFn9EcMjhDn-5">
          <mxGeometry relative="1" as="geometry" />
        </mxCell>
        <mxCell id="95huX523AQFn9EcMjhDn-4" value="Unreleased" style="rounded=0;whiteSpace=wrap;html=1;" vertex="1" parent="1">
          <mxGeometry x="210" y="100" width="120" height="45" as="geometry" />
        </mxCell>
        <mxCell id="95huX523AQFn9EcMjhDn-13" style="edgeStyle=orthogonalEdgeStyle;rounded=0;orthogonalLoop=1;jettySize=auto;html=1;entryX=0;entryY=0.5;entryDx=0;entryDy=0;" edge="1" parent="1" source="95huX523AQFn9EcMjhDn-5" target="95huX523AQFn9EcMjhDn-6">
          <mxGeometry relative="1" as="geometry" />
        </mxCell>
        <mxCell id="95huX523AQFn9EcMjhDn-5" value="Newly released" style="rounded=0;whiteSpace=wrap;html=1;" vertex="1" parent="1">
          <mxGeometry x="390" y="100" width="120" height="45" as="geometry" />
        </mxCell>
        <mxCell id="95huX523AQFn9EcMjhDn-16" style="edgeStyle=orthogonalEdgeStyle;rounded=0;orthogonalLoop=1;jettySize=auto;html=1;" edge="1" parent="1" source="95huX523AQFn9EcMjhDn-6" target="95huX523AQFn9EcMjhDn-7">
          <mxGeometry relative="1" as="geometry" />
        </mxCell>
        <mxCell id="95huX523AQFn9EcMjhDn-6" value="Ongoing" style="rounded=0;whiteSpace=wrap;html=1;" vertex="1" parent="1">
          <mxGeometry x="580" y="100" width="120" height="45" as="geometry" />
        </mxCell>
        <mxCell id="95huX523AQFn9EcMjhDn-14" style="edgeStyle=orthogonalEdgeStyle;rounded=0;orthogonalLoop=1;jettySize=auto;html=1;entryX=0.5;entryY=0;entryDx=0;entryDy=0;" edge="1" parent="1" source="95huX523AQFn9EcMjhDn-7" target="95huX523AQFn9EcMjhDn-10">
          <mxGeometry relative="1" as="geometry" />
        </mxCell>
        <mxCell id="95huX523AQFn9EcMjhDn-15" style="edgeStyle=orthogonalEdgeStyle;rounded=0;orthogonalLoop=1;jettySize=auto;html=1;entryX=0.5;entryY=0;entryDx=0;entryDy=0;" edge="1" parent="1" source="95huX523AQFn9EcMjhDn-7" target="95huX523AQFn9EcMjhDn-9">
          <mxGeometry relative="1" as="geometry" />
        </mxCell>
        <mxCell id="95huX523AQFn9EcMjhDn-7" value="" style="shape=line;html=1;strokeWidth=6;strokeColor=#ff0000;" vertex="1" parent="1">
          <mxGeometry x="420" y="227.5" width="200" height="10" as="geometry" />
        </mxCell>
        <mxCell id="95huX523AQFn9EcMjhDn-19" style="edgeStyle=orthogonalEdgeStyle;rounded=0;orthogonalLoop=1;jettySize=auto;html=1;entryX=0.5;entryY=0;entryDx=0;entryDy=0;" edge="1" parent="1" source="95huX523AQFn9EcMjhDn-9" target="95huX523AQFn9EcMjhDn-18">
          <mxGeometry relative="1" as="geometry" />
        </mxCell>
        <mxCell id="95huX523AQFn9EcMjhDn-9" value="Completed" style="rounded=0;whiteSpace=wrap;html=1;" vertex="1" parent="1">
          <mxGeometry x="370" y="307.5" width="120" height="40" as="geometry" />
        </mxCell>
        <mxCell id="95huX523AQFn9EcMjhDn-17" style="edgeStyle=orthogonalEdgeStyle;rounded=0;orthogonalLoop=1;jettySize=auto;html=1;entryX=1;entryY=0.5;entryDx=0;entryDy=0;" edge="1" parent="1" source="95huX523AQFn9EcMjhDn-10" target="95huX523AQFn9EcMjhDn-6">
          <mxGeometry relative="1" as="geometry">
            <Array as="points">
              <mxPoint x="720" y="327.5" />
              <mxPoint x="720" y="122.5" />
            </Array>
          </mxGeometry>
        </mxCell>
        <mxCell id="95huX523AQFn9EcMjhDn-10" value="Hiatus" style="rounded=0;whiteSpace=wrap;html=1;" vertex="1" parent="1">
          <mxGeometry x="550" y="307.5" width="120" height="40" as="geometry" />
        </mxCell>
        <mxCell id="95huX523AQFn9EcMjhDn-18" value="" style="ellipse;html=1;shape=endState;fillColor=#000000;strokeColor=#ff0000;" vertex="1" parent="1">
          <mxGeometry x="415" y="397.5" width="30" height="30" as="geometry" />
        </mxCell>
      </root>
    </mxGraphModel>
  </diagram>
</mxfile>
